<?xml version="1.0" standalone="no"?>
<!DOCTYPE svg PUBLIC "-//W3C//DTD SVG 20010904//EN"
 "http://www.w3.org/TR/2001/REC-SVG-20010904/DTD/svg10.dtd">
<svg version="1.0" xmlns="http://www.w3.org/2000/svg"
 width="250.000000pt" height="250.000000pt" viewBox="0 0 250.000000 250.000000"
 preserveAspectRatio="xMidYMid meet">

<g transform="translate(0.000000,250.000000) scale(0.100000,-0.100000)"
fill="#000000" stroke="none">
<path d="M0 1250 l0 -1250 1250 0 1250 0 0 1250 0 1250 -1250 0 -1250 0 0
-1250z m2028 531 c-1 -5 -51 -59 -110 -120 l-107 -111 -462 0 -462 0 36 -32
37 -33 -30 -114 c-17 -63 -29 -119 -27 -124 1 -4 31 21 65 57 l62 66 316 0
c267 0 315 -2 312 -14 -2 -8 -49 -62 -106 -120 l-102 -106 -283 0 c-155 0
-287 -4 -294 -8 -6 -4 -32 -90 -58 -192 -26 -102 -51 -193 -56 -202 -9 -16
-27 -18 -149 -18 -76 0 -141 4 -144 9 -5 8 29 147 159 637 25 94 45 181 45
194 0 12 -20 69 -45 126 -25 56 -45 105 -45 108 0 3 327 6 726 6 429 0 724 -4
722 -9z"/>
</g>
</svg>
